<?xml version="1.0" encoding="UTF-8" standalone="no"?>
<!-- Created with Inkscape (http://www.inkscape.org/) -->

<svg
   xmlns:dc="http://purl.org/dc/elements/1.1/"
   xmlns:cc="http://creativecommons.org/ns#"
   xmlns:rdf="http://www.w3.org/1999/02/22-rdf-syntax-ns#"
   xmlns:svg="http://www.w3.org/2000/svg"
   xmlns="http://www.w3.org/2000/svg"
   xmlns:sodipodi="http://sodipodi.sourceforge.net/DTD/sodipodi-0.dtd"
   xmlns:inkscape="http://www.inkscape.org/namespaces/inkscape"
   width="700mm"
   height="700mm"
   viewBox="0 0 700 700"
   version="1.1"
   id="svg45003"
   inkscape:version="0.92.0 r15299"
   sodipodi:docname="bbva-logo.svg"
   inkscape:export-filename="C:\Users\suitedoalex\sites\bbva-logo-0.png"
   inkscape:export-xdpi="148.6263"
   inkscape:export-ydpi="148.6263">
  <defs
     id="defs44997" />
  <sodipodi:namedview
     id="base"
     pagecolor="#ffffff"
     bordercolor="#666666"
     borderopacity="1.0"
     inkscape:pageopacity="0.0"
     inkscape:pageshadow="2"
     inkscape:zoom="0.175"
     inkscape:cx="406.48125"
     inkscape:cy="1593.6304"
     inkscape:document-units="mm"
     inkscape:current-layer="layer1"
     showgrid="false"
     inkscape:window-width="1920"
     inkscape:window-height="1017"
     inkscape:window-x="-8"
     inkscape:window-y="-8"
     inkscape:window-maximized="1" />
  <metadata
     id="metadata45000">
    <rdf:RDF>
      <cc:Work
         rdf:about="">
        <dc:format>image/svg+xml</dc:format>
        <dc:type
           rdf:resource="http://purl.org/dc/dcmitype/StillImage" />
        <dc:title></dc:title>
      </cc:Work>
    </rdf:RDF>
  </metadata>
  <g
     inkscape:label="Camada 1"
     inkscape:groupmode="layer"
     id="layer1"
     transform="translate(0,403)">
    <g
       id="use40502"
       style="fill:#00427f;fill-opacity:1"
       transform="matrix(6.8939113,0,0,6.8939113,61.155888,33.173891)"
       inkscape:export-filename="C:\Users\suitedoalex\sites\bbva-logo-4.png"
       inkscape:export-xdpi="17.819937"
       inkscape:export-ydpi="17.819937">
      <path
         inkscape:connector-curvature="0"
         id="path45556"
         d="M 60.140625,-21.484375 C 60.222656,-21.660156 60.3125,-21.75 60.40625,-21.75 h 3.515625 c 0.08203,0 0.171875,0.04687 0.265625,0.140625 0.09375,0.08594 0.09375,0.171875 0,0.265625 L 52.96875,-0.265625 c -0.08594,0.085937 -0.195312,0.125 -0.328125,0.125 -0.136719,0 -0.25,-0.039063 -0.34375,-0.125 L 41.078125,-21.34375 c -0.08594,-0.09375 -0.105469,-0.179688 -0.0625,-0.265625 0.03906,-0.09375 0.148438,-0.140625 0.328125,-0.140625 h 3.390625 c 0.175781,0 0.3125,0.08984 0.40625,0.265625 l 7.15625,13.515625 c 0,0.085937 0.08594,0.125 0.265625,0.125 0.1875,0 0.320313,-0.039063 0.40625,-0.125 z M 64.1875,-3.515625 C 64.09375,-3.335938 63.957031,-3.25 63.78125,-3.25 h -3.515625 c -0.08594,0 -0.152344,-0.039063 -0.203125,-0.125 C 60.019531,-3.46875 60,-3.5625 60,-3.65625 l 11.21875,-21.078125 c 0.08203,-0.08203 0.210938,-0.125 0.390625,-0.125 0.1875,0 0.328125,0.04297 0.421875,0.125 L 83.25,-3.65625 c 0,0.09375 -0.02734,0.1875 -0.07813,0.28125 -0.04297,0.085937 -0.109375,0.125 -0.203125,0.125 H 79.45312 c -0.179687,0 -0.3125,-0.085938 -0.40625,-0.265625 L 72.03125,-17.03125 c -0.09375,-0.175781 -0.234375,-0.265625 -0.421875,-0.265625 -0.179687,0 -0.308594,0.08984 -0.390625,0.265625 z M 15.546875,-11.75 c 0.269531,0.08594 0.582031,0.21875 0.9375,0.40625 0.632813,0.355469 1.175781,0.851562 1.625,1.484375 0.539063,0.898437 0.8125,1.976562 0.8125,3.234375 0,4.324219 -2.617187,6.484375 -7.84375,6.484375 h -10.125 c -0.273437,0 -0.40625,-0.132813 -0.40625,-0.40625 V -21.34375 c 0,-0.269531 0.132813,-0.40625 0.40625,-0.40625 H 11.625 c 1.882813,0 3.410156,0.515625 4.578125,1.546875 1.175781,1.03125 1.765625,2.40625 1.765625,4.125 0,0.992187 -0.226562,1.871094 -0.671875,2.640625 -0.449219,0.761719 -1.03125,1.324219 -1.75,1.6875 z M 4.59375,-18.65625 c -0.273437,0 -0.40625,0.136719 -0.40625,0.40625 v 4.875 c 0,0.273437 0.132813,0.40625 0.40625,0.40625 h 6.21875 c 2.34375,0 3.515625,-0.945313 3.515625,-2.84375 0,-1.894531 -1.171875,-2.84375 -3.515625,-2.84375 z M 10.953125,-3.25 c 1.53125,0 2.65625,-0.242188 3.375,-0.734375 0.71875,-0.5 1.078125,-1.351563 1.078125,-2.5625 0,-1.21875 -0.359375,-2.070313 -1.078125,-2.5625 -0.71875,-0.5 -1.84375,-0.75 -3.375,-0.75 H 4.59375 c -0.367187,0 -0.546875,0.136719 -0.546875,0.40625 v 5.796875 c 0,0.273437 0.179688,0.40625 0.546875,0.40625 z m 26.484375,-8.5 c 0.269531,0.08594 0.539063,0.21875 0.8125,0.40625 0.71875,0.355469 1.253906,0.851562 1.609375,1.484375 0.632813,0.898437 0.953125,1.976562 0.953125,3.234375 0,4.324219 -2.617187,6.484375 -7.84375,6.484375 h -10.125 c -0.273437,0 -0.40625,-0.132813 -0.40625,-0.40625 V -21.34375 c 0,-0.269531 0.132813,-0.40625 0.40625,-0.40625 h 10.671875 c 1.800781,0 3.304688,0.515625 4.515625,1.546875 1.21875,1.03125 1.828125,2.40625 1.828125,4.125 0,0.992187 -0.226562,1.871094 -0.671875,2.640625 -0.449219,0.761719 -1.03125,1.324219 -1.75,1.6875 z m -11.09375,-6.90625 c -0.261719,0 -0.390625,0.136719 -0.390625,0.40625 v 4.875 c 0,0.273437 0.128906,0.40625 0.390625,0.40625 h 6.359375 c 2.34375,0 3.515625,-0.945313 3.515625,-2.84375 0,-1.894531 -1.171875,-2.84375 -3.515625,-2.84375 z m 6.5,15.40625 c 1.53125,0 2.65625,-0.242188 3.375,-0.734375 0.71875,-0.5 1.078125,-1.351563 1.078125,-2.5625 0,-1.21875 -0.359375,-2.070313 -1.078125,-2.5625 -0.71875,-0.5 -1.84375,-0.75 -3.375,-0.75 h -6.5 c -0.261719,0 -0.390625,0.136719 -0.390625,0.40625 v 5.796875 c 0,0.273437 0.128906,0.40625 0.390625,0.40625 z m 0,0"
         style="stroke:none" />
    </g>
  </g>
</svg>
