<?xml version="1.0" encoding="UTF-8"?>
<svg id="uuid-a0602c1a-b55c-462c-9be6-92adfc777b4d" xmlns="http://www.w3.org/2000/svg" version="1.1" viewBox="0 0 512.4 119.3">
  <!-- Generator: Adobe Illustrator 29.6.1, SVG Export Plug-In . SVG Version: 2.1.1 Build 9)  -->
  <defs>
    <style>
      .st0 {
        fill: #50007f;
      }

      .st1 {
        fill: #f75000;
      }
    </style>
  </defs>
  <g id="uuid-b66148e8-345b-4ff2-8f95-caf50475dac2">
    <g id="uuid-ca3effa6-be87-4001-a786-72ff01444d40">
      <path id="uuid-3afe86a5-4430-4cc1-a8df-64189fa48faf" class="st1" d="M72.7,0h-14.7c-.9,0-1.7.7-1.7,1.7h0s.3,54.9.3,54.9c0,.2-.2.3-.4.3,0,0-.2,0-.3-.1L20.3,1.4c-.5-.9-1.5-1.4-2.5-1.4H1.7C.8,0,0,.7,0,1.7h0v85.4c0,.9.7,1.7,1.7,1.7h14.7c.9,0,1.7-.7,1.7-1.7h0v-54.3c0-.2.2-.3.4-.3.1,0,.2,0,.3.1l35.3,54.9c.5.9,1.5,1.4,2.5,1.4h16.1c.9,0,1.7-.7,1.7-1.7h0V1.8c0-.9-.5-1.7-1.4-1.8C72.8,0,72.8,0,72.7,0h0Z"/>
      <path id="uuid-e23faeb6-443e-423a-8bb8-574d1216c2ee" class="st1" d="M319.3,34.2c-4.5-5.7-11.8-8.5-19.7-8.5-1.8,0-3.6.3-5.4.8-2.1.7-4.1,1.9-5.8,3.5-.1.1-.4.1-.5,0,0,0,0-.1,0-.2v-1.1c0-.9-.7-1.7-1.7-1.7h-14.5c-.9,0-1.7.7-1.7,1.7h0v58.7c0,.9.7,1.7,1.7,1.7h14.4c.9,0,1.7-.7,1.7-1.7h0s0-35.8,0-36.1c0-5.5,4.6-8.9,9.8-8.9s9.5,4.5,9.8,9.5v35.5c0,.9.7,1.7,1.7,1.7h14.5c.9,0,1.7-.7,1.7-1.7h0v-30.4c.1-10.4-1.8-17.2-6-22.6h0Z"/>
      <path id="uuid-70f4009d-1f21-4424-8a72-00a2613f1935" class="st1" d="M258.4,26.8h-14.5c-1,0-1.8.8-1.8,1.8h0v1c0,.2-.1.4-.3.4,0,0-.2,0-.3-.1-3.9-2.8-8.6-4.3-13.4-4.4-7.9,0-15.4,2.8-21.2,8.1-7,6.3-10.6,14.4-10.6,24.1s2.7,15.7,8.2,21.8c6.3,7,14.3,10.6,23.7,10.6s9.1-1.5,13.4-4c.2,0,.4,0,.5,0,0,0,0,.2,0,.2v.7c0,1,.8,1.8,1.8,1.8h14.5c1,0,1.8-.8,1.8-1.8h0V28.6c0-.9-.6-1.7-1.5-1.8h-.2ZM228.5,73.5c-3.7,0-7.3-1.4-9.8-4-2.8-2.8-4.2-6.7-4.2-11.7s1-7.8,3.1-10.4c2.5-3.4,6.4-5.3,10.6-5.2,4.2,0,7.4,1.3,10,4,2.7,2.9,4.1,6.8,4.1,11.6s-1,7.8-3.1,10.6c-2.5,3.6-6.1,5.3-10.7,5.3h0Z"/>
      <path id="uuid-6373b282-c625-4831-ae4c-f8482870ed49" class="st1" d="M145.2,26.8h-14.5c-1,0-1.8.8-1.8,1.8h0v1c0,.2-.1.4-.3.4,0,0-.2,0-.3-.1-3.9-2.8-8.6-4.3-13.4-4.4-7.9,0-15.4,2.8-21.2,8.1-7,6.3-10.6,14.4-10.6,24.1s2.7,15.7,8.2,21.8c6.3,7,14.3,10.6,23.7,10.6s9.1-1.5,13.4-4c.2,0,.4,0,.5,0,0,0,0,.2,0,.2v.7c0,1,.8,1.8,1.8,1.8h14.5c1,0,1.8-.8,1.8-1.8h0V28.6c0-.9-.6-1.7-1.5-1.8h-.2ZM115.3,73.5c-3.7,0-7.3-1.4-9.8-4-2.8-2.8-4.2-6.7-4.2-11.7s1-7.8,3.1-10.4c2.5-3.4,6.4-5.3,10.6-5.2,4.2,0,7.4,1.3,10,4,2.7,2.9,4.1,6.8,4.1,11.6s-1,7.8-3.1,10.6c-2.5,3.6-6.1,5.3-10.7,5.3h0Z"/>
      <path id="uuid-ee8fe692-d86b-4398-a09f-7372ff045520" class="st1" d="M422.7,26.8h-14.5c-1,0-1.8.8-1.8,1.8h0v1.1c0,.2-.1.4-.3.4,0,0-.2,0-.3-.1-3.9-2.8-8.6-4.3-13.4-4.4-7.9,0-15.5,2.8-21.2,8.1-7,6.3-10.6,14.4-10.6,24.1s2.7,15.7,8.2,21.8c6.3,7,14.3,10.6,23.7,10.6s9.1-1.5,13.4-4c.2,0,.4,0,.5,0,0,0,0,.2,0,.2v.7c0,1,.8,1.8,1.8,1.8h14.5c1,0,1.8-.8,1.8-1.8h0V28.6c0-1-.7-1.8-1.7-1.8h0ZM392.8,73.5c-3.7,0-7.3-1.4-9.8-4-2.8-2.8-4.2-6.7-4.2-11.7s1-7.8,3.1-10.4c2.5-3.4,6.5-5.3,10.6-5.2,4.2,0,7.4,1.3,10,4,2.7,2.9,4.1,6.8,4.1,11.6s-1,7.8-3.1,10.6c-2.6,3.6-6.1,5.3-10.7,5.3h0Z"/>
      <path id="uuid-018f49f2-b5f1-4c05-87a2-93888ed9ee06" class="st1" d="M186.8,27c-3.3.1-6.5,1.2-9.2,3.2-.1.1-.4.1-.5,0,0,0,0-.1,0-.2v-1.4c0-.9-.7-1.7-1.7-1.7h-14.5c-.9,0-1.7.7-1.7,1.7h0v58.7c0,.9.7,1.7,1.7,1.7h14.5c.9,0,1.7-.7,1.7-1.7h0v-28.3c0-6.1.7-10.2,2.2-12.4,1.3-2,3.9-2.9,7.7-2.9,1.7,0,3.4,0,5.1.3,1,0,1.8-.8,1.8-1.8h0v-13c0-.9-.6-1.6-1.5-1.7-1.8-.2-3.7-.4-5.5-.4h0Z"/>
      <path id="uuid-0d95e4a4-8849-4652-ab53-8b94a3862163" class="st1" d="M352.7,3.2c-2-2-4.7-3.2-7.6-3.1-2.9,0-5.7,1.1-7.8,3.1-2.1,1.9-3.2,4.7-3.2,7.6,0,6,4.9,10.8,10.8,10.8,2.9,0,5.6-1.1,7.7-3.1,2-2,3.2-4.7,3.1-7.6,0-2.8-1.1-5.6-3.1-7.6h0Z"/>
      <path id="uuid-46ef5a00-0655-46e5-9b29-391253c96e0f" class="st1" d="M352.2,26.8h-14.5c-.9,0-1.7.7-1.7,1.7h0v61.6c0,2.5-1.2,10.9-12.9,11.8-.9,0-1.6.8-1.6,1.8v13.9h0c0,1.1.8,1.8,1.7,1.8h.1c2.9-.1,29.1-2.2,30.5-27.5,0-.1,0-.3,0-.5V28.5c0-1-.8-1.7-1.8-1.8h0Z"/>
      <path id="uuid-167ed572-00a3-4b21-b5ac-0556344f36d2" class="st1" d="M457.6,1.5c-.6-.9-1.6-1.5-2.7-1.5h-16.8c-.9,0-1.7.8-1.7,1.7s0,.6.3.9l26.8,41.4c.1.2.1.5,0,.8l-26.8,41.4c-.5.8-.3,1.8.5,2.3.3.2.6.3.9.3h16.8c1.1,0,2.1-.5,2.7-1.4l26.1-40.6c.9-1.4.9-3.3,0-4.7L457.6,1.5Z"/>
      <path id="uuid-3e169ac0-fa95-49e8-98c6-dd6884be80d7" class="st0" d="M489,50.4c-.2-.3-.5-.5-.9-.3-.1,0-.2.2-.3.3l-8.7,13.6c-.9,1.4-.9,3.3,0,4.7l11.9,18.4c.7,1.1,1.9,1.8,3.2,1.8h16.5c.9,0,1.7-.8,1.7-1.7s0-.6-.3-.9l-23.1-35.8h0Z"/>
      <path id="uuid-869224a1-ebaf-4425-9e2d-aca916ab2c4f" class="st0" d="M491,1.8l-11.9,18.5c-.9,1.4-.9,3.3,0,4.7l8.7,13.6c.2.3.7.4,1,.1,0,0,.1,0,.1-.1l23.1-35.8c.5-.8.3-1.8-.5-2.3-.3-.2-.6-.3-.9-.3h-16.6c-1.3,0-2.5.7-3.1,1.8h0Z"/>
    </g>
  </g>
</svg>